:SAMPLES-PER-SECOND 30
:FULLY-SPECIFIED
:DEGREES
37
root  34.87847095 36.51119743 -14.9407995 8.222369194 -1.680769086 3.302137852
lowerback  -8.526399612 0.1172429845 -0.0004674969532
upperback  -3.351860046 0.5800979733 -3.230139971
thorax  1.343009949 0.4263705015 -3.279371977
lowerneck  -14.67339993 -0.2280379981 -0.7356470227
upperneck  15.54199982 -1.644729972 6.43584013
head  7.252840042 -0.3690300286 2.033610106
lclavicle  0 -4.497500157e-015 -2.743230041e-014
lhumerus  -45.03390121 26.5814991 69.0019989
lradius  -0.009002206847 -6.507048965e-006 30.1602993
lwrist  4.824992743e-007 -3.790274832e-007 -26.58379936
lhand  -4.415548489e-031 -36.89830017 -10.55959988
lfingers  90 7.125020027 -90
lthumb  94.79074775 -25.3976094 101.0566937
rclavicle  0 -4.497500157e-015 -2.743230041e-014
rhumerus  -45.38330078 -17.89669991 -72.60710144
rradius  -5.16745672e-007 2.214343908e-008 45.56980133
rwrist  -3.062178075e-005 0.020962568 -156.6529999
rhand  -1.766862857e-031 -2.198319912 -7.641699791
rfingers  -90 -7.125020027 -90
rthumb  -86.48159599 -8.039988717 -66.26945796
rfemur  -11.79100227 15.68187523 13.72710037
rtibia  -1.250284195 0.1534082443 21.1963501
rfoot  -0.327188015 -20.06587029 -38.53194809
rtoes  4.073237573 19.59747599 -101.9865652
lfemur  -8.518367767 -18.01906204 -19.39640999
ltibia  1.932548285 -0.1572551876 15.38573074
lfoot  0.5993304253 -25.52821159 36.19816208
ltoes  -8.701386425 -18.07813801 -116.2524466
38
root  34.87757886 36.51049156 -14.94054118 8.231087685 -1.661188364 3.301826239
lowerback  -8.500387192 0.1193037257 -0.0090166023
upperback  -3.361759901 0.5767427087 -3.227859974
thorax  1.317989945 0.4277868271 -3.276329756
lowerneck  -14.69839954 -0.224375993 -0.7413079739
upperneck  15.58069992 -1.650220156 6.470479965
head  7.270480156 -0.3687409759 2.045680046
lclavicle  0 -4.497500157e-015 -2.743230041e-014
lhumerus  -45.06269836 26.59140015 69.01100159
lradius  -0.009002206847 -6.507048965e-006 30.2038002
lwrist  4.824992743e-007 -3.790274832e-007 -26.54199982
lhand  -4.416926341e-031 -36.92210007 -10.63910007
lfingers  90 7.125020027 -90
lthumb  94.81878769 -25.47488462 101.0893896
rclavicle  0 -4.497500157e-015 -2.743230041e-014
rhumerus  -45.34899902 -17.09880066 -73.14289856
rradius  -5.16745672e-007 2.214343908e-008 46.36539841
rwrist  -3.062178075e-005 0.020962568 -157.3699951
rhand  -1.766974577e-031 -2.290750027 -7.815090179
rfingers  -90 -7.125020027 -90
rthumb  -86.56887696 -7.876216657 -66.36922568
rfemur  -11.78877831 15.62028694 13.7289362
rtibia  -1.252203107 0.1189664826 21.17869759
rfoot  -0.3304383457 -20.13794518 -38.51687241
rtoes  4.09954899 19.59219555 -102.0650209
lfemur  -8.57053566 -17.96588516 -19.36489105
ltibia  1.906568527 -0.1303413957 15.43573093
lfoot  0.6053211093 -25.6107502 36.15139771
ltoes  -8.699288918 -18.07912128 -116.2456874
39
root  34.87709526 36.51021221 -14.94189285 8.252061844 -1.650842309 3.30090642
lowerback  -8.485054016 0.1207231805 -0.02479832061
upperback  -3.357700109 0.5723149776 -3.237030029
thorax  1.313629985 0.4289803207 -3.272765398
lowerneck  -14.6935997 -0.2498700023 -0.7438079715
upperneck  15.52670002 -1.673539877 6.448110104
head  7.252759933 -0.3818179369 2.035909891
lclavicle  0 -4.497500157e-015 -2.743230041e-014
lhumerus  -45.06809998 26.5890007 69.01699829
lradius  -0.009002206847 -6.507048965e-006 30.24939728
lwrist  4.824992743e-007 -3.790274832e-007 -26.48110008
lhand  -0 -36.89720154 -10.62040043
lfingers  90 7.125020027 -90
lthumb  94.80314035 -25.45737287 101.0610251
rclavicle  0 -4.497500157e-015 -2.743230041e-014
rhumerus  -45.33029938 -16.26079941 -73.67199707
rradius  -5.16745672e-007 2.214343908e-008 47.17300034
rwrist  -3.062178075e-005 0.020962568 -158.4409943
rhand  -1.766390027e-031 -1.75387001 -7.743070126
rfingers  -90 -7.125020027 -90
rthumb  -86.44066155 -7.971547448 -65.84251454
rfemur  -11.82982731 15.61158657 13.73343468
rtibia  -1.261456728 0.1262876987 21.20760536
rfoot  -0.3489780128 -20.12502098 -38.54018784
rtoes  4.082719133 19.59557725 -102.0148351
lfemur  -8.636024475 -17.95940399 -19.3383007
ltibia  1.881486058 -0.1306871474 15.49164295
lfoot  0.6036885977 -25.63229561 36.10981369
ltoes  -8.696739479 -18.080316 -116.2374724
40
root  34.87620016 36.5088185 -14.9434743 8.24819088 -1.62588501 3.299586535
lowerback  -8.489293098 0.1215769276 -0.02368207648
upperback  -3.365309954 0.5737820268 -3.233259916
thorax  1.308150053 0.4299552739 -3.272209883
lowerneck  -14.70359993 -0.2807089984 -0.7979130149
upperneck  15.52620029 -1.707289934 6.471340179
head  7.256140232 -0.3986999691 2.048979998
lclavicle  0 -4.497500157e-015 -2.743230041e-014
lhumerus  -45.0780983 26.65769958 68.97360229
lradius  -0.009002206847 -6.507048965e-006 30.2208004
lwrist  4.824992743e-007 -3.790274832e-007 -26.58099937
lhand  -0 -36.87879944 -10.63630009
lfingers  90 7.125020027 -90
lthumb  94.79788268 -25.47358286 101.0427593
rclavicle  0 -4.497500157e-015 -2.743230041e-014
rhumerus  -45.31980133 -15.43420029 -74.1765976
rradius  -5.16745672e-007 2.214343908e-008 48.01679993
rwrist  -3.062178075e-005 0.020962568 -159.4019928
rhand  -1.766378794e-031 -1.741930008 -7.881420135
rfingers  -90 -7.125020027 -90
rthumb  -86.49563429 -7.845931832 -65.83871015
rfemur  -11.82023048 15.5846653 13.73033428
rtibia  -1.262468338 0.1345753819 21.21117783
rfoot  -0.343090713 -20.10269356 -38.52561569
rtoes  4.060878087 19.59994412 -101.9497186
lfemur  -8.624256134 -18.00766373 -19.35805321
ltibia  1.892797232 -0.1567822844 15.48396873
lfoot  0.5988714695 -25.57421494 36.09530258
ltoes  -8.68957451 -18.08367132 -116.2143878
41
root  34.87611906 36.50785431 -14.94465325 8.25018692 -1.614259481 3.298072338
lowerback  -8.476527214 0.1219405755 -0.02219237201
upperback  -3.377500057 0.5829380155 -3.237401009
thorax  1.289090037 0.4307160079 -3.278000116
lowerneck  -14.70510006 -0.2980110049 -0.8051779866
upperneck  15.52579975 -1.732380033 6.484819889
head  7.249423027 -0.4095804989 2.05488658
lclavicle  0 -4.497500157e-015 -2.743230041e-014
lhumerus  -45.09659958 26.67350006 68.95680237
lradius  -0.009002206847 -6.507048965e-006 30.23451996
lwrist  4.824992743e-007 -3.790274832e-007 -26.56529999
lhand  -4.412335987e-031 -36.84270096 -10.63549995
lfingers  90 7.125020027 -90
lthumb  94.78081743 -25.47403652 101.0040854
rclavicle  0 -4.497500157e-015 -2.743230041e-014
rhumerus  -45.29430008 -14.77450085 -74.64679718
rradius  -5.16745672e-007 2.214343908e-008 48.88710022
rwrist  -3.062178075e-005 0.020962568 -159.8690033
rhand  -1.766249467e-031 -1.598039985 -7.569210052
rfingers  -90 -7.125020027 -90
rthumb  -86.33931579 -8.13857684 -65.68058208
rfemur  -11.82983875 15.58947086 13.72377777
rtibia  -1.266264439 0.1377775371 21.2292366
rfoot  -0.35614416 -20.09370041 -38.54839325
rtoes  4.073734759 19.59737654 -101.9880475
lfemur  -8.618616104 -18.03089523 -19.37451172
ltibia  1.905839324 -0.1546093971 15.47283459
lfoot  0.5946317911 -25.57871056 36.10651779
ltoes  -8.707871356 -18.07509611 -116.2733463
